# xmcd
#
# Track frame offsets:
#	150
#	30468
#	60516
#	89830
#	122715
#	150965
#	215118
#	246188
#
# Disc length: 3631 seconds
#
# Revision: 1
# Processed by: cddbd v1.5.2PL0 Copyright (c) Steve Scherf et al.
# Submitted via: EasyCDDAExtractor 2010.4.0.0
#
DISCID=680e2d08
DTITLE=Dzem - Akustycznie
DYEAR=1994
DGENRE=blues
TTITLE0=Jesiony
TTITLE1=Autsajder
TTITLE2=Zloty Paw
TTITLE3=Mala Aleja Roz
TTITLE4=Czerwony Jak Cegla
TTITLE5=Detox
TTITLE6=List Do M.
TTITLE7=Wehikul Czasu
EXTD=
EXTT0=
EXTT1=
EXTT2=
EXTT3=
EXTT4=
EXTT5=
EXTT6=
EXTT7=
PLAYORDER=
